<svg xmlns="http://www.w3.org/2000/svg" viewBox="0 0 157.16 157.16"><g id="a8cd6ac4-f09b-425f-bb51-be4688073605" data-name="Layer 2"><g id="affe0dee-0d8a-426b-b3e2-85d60e0d2189" data-name="Stage 1 Graphics"><path d="M118.38,40.51H38.78a4.12,4.12,0,0,0-4.12,4.12V96.78a4.12,4.12,0,0,0,4.12,4.12H77.21v8.23H55.94a1.38,1.38,0,1,0,0,2.75H99.17a1.38,1.38,0,0,0,0-2.75H80V100.9H99.17a1.38,1.38,0,0,0,0-2.75H38.78a1.37,1.37,0,0,1-1.37-1.37V44.63a1.37,1.37,0,0,1,1.37-1.38h79.6a1.38,1.38,0,0,1,1.38,1.38V74.82a1.37,1.37,0,0,0,2.74,0V44.63A4.11,4.11,0,0,0,118.38,40.51Z" fill="#fff"/><path d="M121.13,78.94H104.66a1.37,1.37,0,0,0-1.37,1.37V116a1.37,1.37,0,0,0,1.37,1.37h16.47A1.37,1.37,0,0,0,122.5,116V80.31A1.37,1.37,0,0,0,121.13,78.94Zm-1.37,35.68H106V81.68h13.73Z" fill="#fff"/><circle cx="110.15" cy="85.8" r="1.37" fill="#fff"/><circle cx="115.64" cy="85.8" r="1.37" fill="#fff"/><circle cx="110.15" cy="92.66" r="1.37" fill="#fff"/><circle cx="115.64" cy="92.66" r="1.37" fill="#fff"/><circle cx="110.15" cy="99.53" r="1.37" fill="#fff"/><circle cx="115.64" cy="99.53" r="1.37" fill="#fff"/><circle cx="78.58" cy="78.58" r="77.08" fill="none" stroke="#fc0" stroke-miterlimit="10" stroke-width="3"/></g></g></svg>