<svg xmlns="http://www.w3.org/2000/svg" viewBox="0 0 157.16 157.16"><g id="a1b3c1ff-252c-4c1e-9472-a7ff3f1b65a2" data-name="Layer 2"><g id="b604f547-0cff-433c-b0f8-8a8461a14d3d" data-name="Stage 1 Graphics"><circle cx="78.58" cy="78.58" r="77.08" fill="none" stroke="#fc0" stroke-miterlimit="10" stroke-width="3"/><path d="M79.08,36.88a8.41,8.41,0,0,0-.94,16.77V68.74a11.16,11.16,0,0,0-6.28,2.6L61.6,61.08A7.47,7.47,0,1,0,55.69,64a7.41,7.41,0,0,0,4.59-1.58L70.51,72.65A11.28,11.28,0,0,0,67.91,79H52.83a8.42,8.42,0,1,0,0,1.87H67.91a11.13,11.13,0,0,0,2.6,6.28L60.25,97.39a7.41,7.41,0,0,0-4.56-1.58A7.49,7.49,0,1,0,61.6,98.7L71.83,88.47a11.16,11.16,0,0,0,6.31,2.6v15.08a8.43,8.43,0,1,0,1.87,0V91.07a11.16,11.16,0,0,0,6.32-2.6L96.56,98.7a7.7,7.7,0,1,0,1.34-1.31L87.64,87.12a11.15,11.15,0,0,0,2.61-6.28h15.08a8.42,8.42,0,1,0,0-1.87H90.25a11.23,11.23,0,0,0-2.61-6.32L97.88,62.42A7.41,7.41,0,0,0,102.46,64a7.54,7.54,0,1,0-5.9-2.92L86.3,71.34A11.16,11.16,0,0,0,80,68.74V53.65a8.41,8.41,0,0,0-.93-16.77Zm0,1.87a6.55,6.55,0,1,1-6.55,6.54A6.53,6.53,0,0,1,79.08,38.75ZM55.69,50.91a5.61,5.61,0,1,1-5.61,5.61A5.6,5.6,0,0,1,55.69,50.91Zm46.77,0a5.61,5.61,0,1,1-5.61,5.61A5.6,5.6,0,0,1,102.46,50.91ZM79.08,70.55a9.36,9.36,0,1,1-9.36,9.35A9.34,9.34,0,0,1,79.08,70.55ZM44.47,73.36a6.55,6.55,0,1,1-6.55,6.54A6.53,6.53,0,0,1,44.47,73.36Zm69.22,0a6.55,6.55,0,1,1-6.55,6.54A6.53,6.53,0,0,1,113.69,73.36Zm-58,24.32a5.61,5.61,0,1,1-5.61,5.61,5.6,5.6,0,0,1,5.61-5.61Zm46.77,0a5.61,5.61,0,1,1-5.61,5.61,5.6,5.6,0,0,1,5.61-5.61ZM79.08,108a6.55,6.55,0,1,1-6.55,6.54A6.53,6.53,0,0,1,79.08,108Z" fill="#fff"/><path d="M81.9,81.37a3.59,3.59,0,0,0,1.39-2.81,4,4,0,0,0-8,0,3.62,3.62,0,0,0,1.39,2.81c-2.62.69-4.47,2.38-4.47,4.36,0,2.6,3.17,4.7,7.08,4.7s7.08-2.1,7.08-4.7C86.37,83.75,84.52,82.06,81.9,81.37Z" fill="none" stroke="#fff" stroke-miterlimit="10" stroke-width="1.5"/></g></g></svg>