<svg xmlns="http://www.w3.org/2000/svg" viewBox="0 0 157.16 157.16"><g id="bdbb7207-fb88-485e-b8e4-a3d8a4148af3" data-name="Layer 2"><g id="b16e0803-4d1f-4182-a4f7-3ff733d1c946" data-name="Stage 1 Graphics"><circle cx="78.58" cy="78.58" r="77.08" fill="none" stroke="#fc0" stroke-miterlimit="10" stroke-width="3"/><path d="M47.43,41.09a1.21,1.21,0,0,0-1,1.21v8.54L35.82,48.35a1.14,1.14,0,0,0-.45,0,1.2,1.2,0,0,0-1,1.21v55.66a1.21,1.21,0,0,0,.94,1.18l41.15,9.68a1.19,1.19,0,0,0,.53,0l41.14-9.68a1.23,1.23,0,0,0,1-1.18V49.56a1.21,1.21,0,0,0-1.18-1.24,1,1,0,0,0-.3,0L107,50.84V42.3a1.22,1.22,0,0,0-1.19-1.24,1.12,1.12,0,0,0-.59.14L76.7,56.63,48.23,41.2A1.17,1.17,0,0,0,47.43,41.09Zm1.44,3.21L72,56.86,48.87,51.41Zm55.67,0v7.11L81.39,56.86ZM36.77,51.07l38.72,9.11v53.14l-38.72-9.08Zm79.87,0v53.17l-38.73,9.08V60.18Zm-74,10.36a1.21,1.21,0,0,0-1,1.21V73.53a1.21,1.21,0,0,0,.94,1.18L69.18,81a1.2,1.2,0,0,0,1.44-.91,1.15,1.15,0,0,0,0-.26V68.92a1.21,1.21,0,0,0-.94-1.21L43.08,61.43A1.14,1.14,0,0,0,42.63,61.43ZM44,64.15l24.2,5.71v8.4L44,72.55Zm49.65,1.1a1.4,1.4,0,0,0-.34.08l-9.68,2.42a1.2,1.2,0,0,0-.87,1.47,1.21,1.21,0,0,0,1.48.87L94,67.67a1.22,1.22,0,0,0-.27-2.42Zm16.94,7a1.54,1.54,0,0,0-.3,0L83.7,78.6A1.22,1.22,0,1,0,84.21,81h0l26.62-6.27a1.22,1.22,0,0,0-.23-2.43Zm0,10.9a1.53,1.53,0,0,0-.3,0L83.7,89.49a1.22,1.22,0,1,0,.51,2.39h0l26.62-6.27a1.23,1.23,0,0,0,1.1-1.33A1.21,1.21,0,0,0,110.62,83.18Zm-68,0a1.21,1.21,0,0,0-1,1.21v10.9a1.21,1.21,0,0,0,.94,1.17l26.63,6.28a1.21,1.21,0,0,0,1.44-.92,1.09,1.09,0,0,0,0-.26V90.7a1.21,1.21,0,0,0-.94-1.21L43.08,83.21A1.69,1.69,0,0,0,42.63,83.21ZM44,85.94l24.2,5.71V100L44,94.33Zm66.59,8.13a1,1,0,0,0-.3,0L83.7,100.38a1.22,1.22,0,1,0,.51,2.39h0l26.62-6.28a1.22,1.22,0,1,0-.23-2.42Z" fill="#fff"/></g></g></svg>