<svg xmlns="http://www.w3.org/2000/svg" viewBox="0 0 157.16 157.16"><g id="b4607c64-7e3d-44f2-8cfa-10d7c9c0ff23" data-name="Layer 2"><g id="ed40a782-afdb-4ace-8f24-0c0a628a5a82" data-name="Stage 1 Graphics"><circle cx="78.58" cy="78.58" r="77.08" fill="none" stroke="#fc0" stroke-miterlimit="10" stroke-width="3"/><path d="M88.12,68.61H69.05a.8.8,0,0,0-.8.8V88.47a.8.8,0,0,0,.8.8H88.12a.8.8,0,0,0,.79-.8V69.41A.8.8,0,0,0,88.12,68.61Zm-.8,19.07H69.84V70.2H87.32Z" fill="#fff" stroke="#fff" stroke-miterlimit="10" stroke-width="0.75"/><path d="M111.16,103.65V54.23a7.16,7.16,0,1,0-1.59,0V87.68H98.45V59.87a.79.79,0,0,0-.8-.79H59.51a.79.79,0,0,0-.79.79v5.56H47.6V54.23a7.16,7.16,0,1,0-1.59,0v12a.79.79,0,0,0,.79.79H58.72V90.86H46.8a.79.79,0,0,0-.79.79v12a7.15,7.15,0,1,0,1.59,0V92.45H58.72V98a.79.79,0,0,0,.79.79H97.65a.79.79,0,0,0,.8-.79V89.27h11.12v14.38a7.15,7.15,0,1,0,1.59,0ZM41.24,47.16a5.56,5.56,0,1,1,5.56,5.56A5.57,5.57,0,0,1,41.24,47.16Zm11.12,63.56a5.56,5.56,0,1,1-5.56-5.56A5.56,5.56,0,0,1,52.36,110.72Zm44.5-13.51H60.31V60.67H96.86Zm7.94-50a5.56,5.56,0,1,1,5.56,5.56A5.57,5.57,0,0,1,104.8,47.16Zm5.56,69.12a5.56,5.56,0,1,1,5.56-5.56A5.57,5.57,0,0,1,110.36,116.28Z" fill="#fff" stroke="#fff" stroke-miterlimit="10" stroke-width="0.75"/></g></g></svg>